<svg width="4400" height="2503" xmlns="http://www.w3.org/2000/svg" xmlns:xlink="http://www.w3.org/1999/xlink" xml:space="preserve" overflow="hidden"><defs><clipPath id="clip0"><rect x="0" y="-14" width="4400" height="2503"/></clipPath><linearGradient x1="1010.5" y1="766.5" x2="2447.72" y2="766.5" gradientUnits="userSpaceOnUse" spreadMethod="reflect" id="stroke1"><stop offset="0" stop-color="#000000" stop-opacity="0"/><stop offset="0.17"/><stop offset="0.41"/><stop offset="0.95" stop-color="#000000" stop-opacity="0"/><stop offset="1" stop-color="#000000" stop-opacity="0"/></linearGradient><linearGradient x1="958.5" y1="1415.5" x2="2447.94" y2="1415.5" gradientUnits="userSpaceOnUse" spreadMethod="reflect" id="stroke2"><stop offset="0" stop-color="#000000" stop-opacity="0"/><stop offset="0.11"/><stop offset="0.52" stop-color="#000000" stop-opacity="0"/><stop offset="0.66" stop-color="#000000" stop-opacity="0"/><stop offset="0.81"/><stop offset="1" stop-color="#000000" stop-opacity="0"/></linearGradient><linearGradient x1="2373.5" y1="685.5" x2="2373.5" y2="1478.36" gradientUnits="userSpaceOnUse" spreadMethod="reflect" id="stroke3"><stop offset="0" stop-color="#000000" stop-opacity="0"/><stop offset="0.17"/><stop offset="0.44" stop-color="#000000" stop-opacity="0"/><stop offset="0.81"/><stop offset="1" stop-color="#000000" stop-opacity="0"/></linearGradient><linearGradient x1="1053.5" y1="685.5" x2="1053.5" y2="1478.36" gradientUnits="userSpaceOnUse" spreadMethod="reflect" id="stroke4"><stop offset="0" stop-color="#000000" stop-opacity="0"/><stop offset="0.12" stop-color="#000000" stop-opacity="0"/><stop offset="0.42"/><stop offset="0.59"/><stop offset="1" stop-color="#000000" stop-opacity="0"/></linearGradient></defs><g clip-path="url(#clip0)" transform="matrix(1 0 0 1 0 14)"><path d="M2619.57 1618.24C2606.66 1618.24 2595.67 1622.81 2586.6 1631.95 2577.53 1641.08 2573 1652.23 2573 1665.38 2573 1678.93 2577.38 1690.09 2586.12 1698.84 2594.87 1707.59 2606.02 1711.96 2619.57 1711.96 2632.63 1711.96 2643.78 1707.44 2653.02 1698.4 2662.25 1689.36 2666.87 1678.41 2666.87 1665.56 2666.87 1652.73 2662.23 1641.63 2652.94 1632.28 2643.66 1622.92 2632.53 1618.24 2619.57 1618.24ZM3010.23 1589.35C3016.5 1589.35 3021.83 1591.63 3026.23 1596.19 3030.62 1600.75 3032.82 1606.31 3032.82 1612.87 3032.82 1619.36 3030.6 1624.9 3026.16 1629.5 3021.73 1634.1 3016.42 1636.4 3010.23 1636.4 3004.22 1636.4 2999.01 1634.12 2994.61 1629.56 2990.21 1625 2988.01 1619.43 2988.01 1612.87 2988.01 1606.23 2990.19 1600.65 2994.55 1596.13 2998.91 1591.61 3004.14 1589.35 3010.23 1589.35ZM1379.51 1589.35C1385.77 1589.35 1391.11 1591.63 1395.5 1596.19 1399.89 1600.75 1402.09 1606.31 1402.09 1612.87 1402.09 1619.36 1399.87 1624.9 1395.44 1629.5 1391 1634.1 1385.69 1636.4 1379.51 1636.4 1373.49 1636.4 1368.29 1634.12 1363.89 1629.56 1359.49 1625 1357.29 1619.43 1357.29 1612.87 1357.29 1606.23 1359.46 1600.65 1363.82 1596.13 1368.18 1591.61 1373.41 1589.35 1379.51 1589.35ZM1933.63 1521.19 1933.63 1620.44C1933.63 1647.43 1940.01 1668.57 1952.78 1683.85 1969.23 1703.46 1990.96 1713.26 2017.96 1713.26 2041.76 1713.26 2061.82 1704.81 2078.16 1687.92 2094.5 1671.02 2102.67 1650.34 2102.67 1625.88L2102.67 1521.19 2027.13 1521.19 2027.13 1627.16C2027.13 1634.92 2024.13 1638.8 2018.14 1638.8 2012.16 1638.8 2009.17 1634.92 2009.17 1627.16L2009.17 1521.19ZM1504.88 1521.19 1504.88 1628.79C1504.88 1654.17 1510.53 1673.65 1521.84 1687.25 1536.25 1704.59 1555.36 1713.26 1579.18 1713.26 1598.18 1713.26 1615.95 1704.81 1632.47 1687.9 1647.4 1704.81 1665.46 1713.26 1686.63 1713.26 1707.26 1713.26 1724.78 1705.78 1739.17 1690.82 1753.56 1675.86 1760.75 1657.72 1760.75 1636.42L1760.75 1521.19 1685.21 1521.19 1685.21 1622.43C1685.21 1633.47 1682.71 1638.99 1677.72 1638.99 1675.17 1638.99 1673.34 1637.99 1672.24 1635.98 1671.14 1633.98 1670.59 1629.46 1670.59 1622.43L1670.59 1521.19 1595.05 1521.19 1595.05 1622.43C1595.05 1633.47 1592.49 1638.99 1587.37 1638.99 1584.83 1638.99 1583.03 1638 1581.99 1636.03 1580.94 1634.05 1580.42 1629.52 1580.42 1622.43L1580.42 1521.19ZM3209.55 1515.08C3189 1515.08 3171.54 1522.55 3157.17 1537.48 3142.79 1552.42 3135.61 1570.55 3135.61 1591.89L3135.61 1707.15 3211.15 1707.15 3211.15 1605.88C3211.15 1594.98 3213.58 1589.54 3218.46 1589.54 3221.09 1589.54 3222.96 1590.53 3224.09 1592.53 3225.21 1594.53 3225.77 1598.92 3225.77 1605.7L3225.77 1707.15 3301.31 1707.15 3301.31 1605.88C3301.31 1594.98 3303.81 1589.54 3308.81 1589.54 3311.39 1589.54 3313.23 1590.54 3314.31 1592.54 3315.4 1594.54 3315.94 1598.93 3315.94 1605.7L3315.94 1707.15 3391.48 1707.15 3391.48 1599.52C3391.48 1574.16 3386.1 1555.11 3375.33 1542.39 3360.28 1524.18 3340.83 1515.08 3316.99 1515.08 3298.2 1515.08 3280.47 1523.52 3263.79 1540.4 3248.81 1523.52 3230.73 1515.08 3209.55 1515.08ZM3012.05 1514.89C2983.7 1514.89 2959.84 1524.31 2940.45 1543.13 2921.06 1561.96 2911.36 1585.15 2911.36 1612.69 2911.36 1639.82 2921.04 1662.96 2940.38 1682.12 2959.72 1701.27 2983.07 1710.85 3010.41 1710.85 3037.81 1710.85 3061.17 1701.29 3080.49 1682.15 3099.81 1663.02 3109.47 1639.86 3109.47 1612.69 3109.47 1585.94 3099.93 1562.95 3080.83 1543.73 3061.74 1524.5 3038.81 1514.89 3012.05 1514.89ZM2797.62 1514.89C2770.73 1514.89 2747.66 1524.34 2728.41 1543.23 2709.15 1562.12 2699.52 1584.85 2699.52 1611.42 2699.52 1639.38 2709.04 1662.97 2728.06 1682.2 2747.08 1701.43 2770.45 1711.04 2798.16 1711.04 2824.43 1711.04 2846.69 1702.28 2864.92 1684.77 2883.16 1667.25 2893.3 1643.6 2895.35 1613.8L2821.42 1616.5C2816.62 1629.89 2809.37 1636.58 2799.65 1636.58 2792.86 1636.58 2787.22 1634.31 2782.73 1629.76 2778.24 1625.21 2775.99 1619.46 2775.99 1612.51 2775.99 1605.71 2778.1 1600.15 2782.31 1595.83 2786.52 1591.51 2791.94 1589.35 2798.56 1589.35 2806.37 1589.35 2813.25 1593.19 2819.2 1600.86L2893.72 1598.15C2889.24 1572.38 2877.99 1552.05 2859.97 1537.19 2841.95 1522.33 2821.16 1514.89 2797.62 1514.89ZM2223.84 1514.89C2200.18 1514.89 2180.17 1523.34 2163.83 1540.23 2147.5 1557.13 2139.33 1577.86 2139.33 1602.43L2139.33 1707.15 2214.87 1707.15 2214.87 1601.16C2214.87 1593.29 2217.8 1589.35 2223.66 1589.35 2229.77 1589.35 2232.83 1593.29 2232.83 1601.16L2232.83 1707.15 2308.37 1707.15 2308.37 1607.88C2308.37 1580.89 2299.72 1559.27 2282.43 1543.02 2270.5 1524.27 2250.97 1514.89 2223.84 1514.89ZM1381.32 1514.89C1352.98 1514.89 1329.11 1524.31 1309.72 1543.13 1290.33 1561.96 1280.64 1585.15 1280.64 1612.69 1280.64 1639.82 1290.31 1662.96 1309.65 1682.12 1328.99 1701.27 1352.34 1710.85 1379.69 1710.85 1407.08 1710.85 1430.44 1701.29 1449.76 1682.15 1469.08 1663.02 1478.74 1639.86 1478.74 1612.69 1478.74 1585.94 1469.2 1562.95 1450.1 1543.73 1431.01 1524.5 1408.08 1514.89 1381.32 1514.89ZM2456.48 1451.92 2456.48 1603.88C2456.48 1625.56 2449.02 1636.4 2434.08 1636.4 2427.89 1636.4 2422.58 1634.26 2418.14 1629.98 2413.71 1625.7 2411.49 1620.55 2411.49 1614.53 2411.49 1608.23 2413.63 1602.89 2417.9 1598.51 2422.17 1594.13 2427.25 1591.94 2433.15 1591.94 2437.86 1591.94 2444.71 1594.07 2453.71 1598.32L2453.71 1516.41C2442.73 1515.52 2435.39 1515.08 2431.67 1515.08 2405.49 1515.08 2382.83 1524.77 2363.71 1544.16 2344.59 1563.55 2335.03 1586.51 2335.03 1613.06 2335.03 1640.51 2344.65 1663.67 2363.89 1682.55 2383.14 1701.42 2406.77 1710.85 2434.8 1710.85 2448.99 1710.85 2462.78 1707.77 2476.17 1701.6 2489.56 1695.43 2500.61 1687.1 2509.32 1676.61 2524.46 1658.43 2532.02 1635.03 2532.02 1606.42L2532.02 1451.92ZM1165.65 1451.92 1165.65 1707.15 1246.93 1707.15 1246.93 1451.92ZM1058.82 1451.92 1058.82 1707.15 1140.1 1707.15 1140.1 1613.24 1160.66 1613.24 1160.66 1540.45 1140.1 1540.45 1140.1 1451.92ZM1895.27 1448.58C1879.07 1448.58 1863.01 1453.72 1847.09 1463.98 1831.17 1474.25 1819.31 1487.5 1811.51 1503.73 1805.35 1516.43 1802.28 1531.71 1802.28 1549.58L1802.28 1707.15 1877.82 1707.15 1877.82 1637.32 1908 1637.32 1908 1558.79 1877.82 1558.79 1877.82 1556.31C1877.82 1546.6 1879.8 1539.31 1883.78 1534.43 1887.75 1529.56 1893.38 1527.12 1900.67 1527.12 1901.2 1527.12 1903.64 1527.17 1908 1527.28L1908 1449.02ZM2858.48 1288.82C2852.44 1291.61 2849.42 1295.52 2849.42 1300.56 2849.42 1303.32 2850.37 1305.55 2852.27 1307.24 2854.17 1308.93 2856.65 1309.78 2859.72 1309.78 2865.45 1309.78 2870.67 1307.75 2875.37 1303.69 2870.93 1296.59 2865.3 1291.63 2858.48 1288.82ZM3213.93 1284.05C3210.65 1284.05 3208.1 1285.18 3206.28 1287.42 3204.46 1289.67 3203.55 1292.85 3203.55 1296.95 3203.55 1305.5 3207.03 1309.78 3214 1309.78 3220.69 1309.78 3224.03 1305.39 3224.03 1296.61 3224.03 1288.24 3220.66 1284.05 3213.93 1284.05ZM2714.78 1284.05C2711.94 1284.05 2709.62 1285.14 2707.83 1287.31 2706.03 1289.48 2705.14 1292.27 2705.14 1295.68L2705.14 1299.39C2705.14 1302.44 2705.96 1304.93 2707.62 1306.87 2709.27 1308.81 2711.41 1309.78 2714.04 1309.78 2717.17 1309.78 2719.6 1308.56 2721.34 1306.13 2723.09 1303.71 2723.96 1300.27 2723.96 1295.83 2723.96 1287.98 2720.9 1284.05 2714.78 1284.05ZM3038.55 1283.01C3036.4 1283.01 3034.51 1283.89 3032.85 1285.64 3031.2 1287.4 3030.17 1289.72 3029.76 1292.62L3046.33 1292.62C3046.33 1286.21 3043.74 1283.01 3038.55 1283.01ZM2785.76 1283.01C2783.62 1283.01 2781.72 1283.89 2780.07 1285.64 2778.42 1287.4 2777.38 1289.72 2776.97 1292.62L2793.54 1292.62C2793.54 1286.21 2790.95 1283.01 2785.76 1283.01ZM3170.94 1275.49 3183.41 1275.49 3183.41 1318.34 3170.94 1318.34ZM3108.99 1275.49 3121.46 1275.49 3121.46 1318.34 3108.99 1318.34ZM2670.32 1275.49 2682.79 1275.49 2682.79 1318.34 2670.32 1318.34ZM2553.84 1275.49 2566.31 1275.49 2566.31 1318.34 2553.84 1318.34ZM3009.2 1274.76C3010.67 1274.76 3011.79 1274.92 3012.56 1275.26L3012.56 1286.84C3011.04 1285.96 3009.2 1285.53 3007.03 1285.53 3004.19 1285.53 3001.93 1286.61 3000.27 1288.78 2998.6 1290.95 2997.77 1293.93 2997.77 1297.73L2997.77 1318.34 2985.26 1318.34 2985.26 1275.49 2997.77 1275.49 2997.77 1283.55 2997.93 1283.55C2999.99 1277.69 3003.75 1274.76 3009.2 1274.76ZM2543.27 1274.76C2544.74 1274.76 2545.87 1274.92 2546.64 1275.26L2546.64 1286.84C2545.12 1285.96 2543.27 1285.53 2541.1 1285.53 2538.26 1285.53 2536.01 1286.61 2534.35 1288.78 2532.68 1290.95 2531.85 1293.93 2531.85 1297.73L2531.85 1318.34 2519.34 1318.34 2519.34 1275.49 2531.85 1275.49 2531.85 1283.55 2532 1283.55C2534.07 1277.69 2537.83 1274.76 2543.27 1274.76ZM3271.93 1274.45C3281.44 1274.45 3286.19 1280.34 3286.19 1292.11L3286.19 1318.34 3273.75 1318.34 3273.75 1294.44C3273.75 1287.51 3271.26 1284.05 3266.28 1284.05 3263.91 1284.05 3261.93 1284.98 3260.36 1286.82 3258.78 1288.67 3257.99 1291.03 3257.99 1293.89L3257.99 1318.34 3245.49 1318.34 3245.49 1275.49 3257.99 1275.49 3257.99 1282.31 3258.15 1282.31C3261.27 1277.07 3265.87 1274.45 3271.93 1274.45ZM3214.24 1274.45C3221.13 1274.45 3226.6 1276.43 3230.66 1280.39 3234.71 1284.36 3236.74 1289.68 3236.74 1296.37 3236.74 1303.4 3234.66 1308.99 3230.5 1313.15 3226.34 1317.3 3220.72 1319.38 3213.62 1319.38 3206.65 1319.38 3201.12 1317.39 3197.02 1313.4 3192.93 1309.41 3190.89 1303.98 3190.89 1297.11 3190.89 1290.06 3193 1284.52 3197.22 1280.49 3201.44 1276.46 3207.11 1274.45 3214.24 1274.45ZM3148.87 1274.45C3152.8 1274.45 3156.58 1275.03 3160.22 1276.19L3160.22 1286.03C3156.89 1284.07 3153.22 1283.09 3149.22 1283.09 3147.23 1283.09 3145.63 1283.44 3144.42 1284.15 3143.2 1284.86 3142.6 1285.8 3142.6 1286.96 3142.6 1288.92 3144.41 1290.51 3148.02 1291.72 3151.89 1293.02 3154.8 1294.19 3156.75 1295.25 3158.7 1296.31 3160.18 1297.7 3161.2 1299.43 3162.22 1301.16 3162.73 1303.16 3162.73 1305.44 3162.73 1309.85 3160.97 1313.28 3157.43 1315.72 3153.89 1318.16 3149.17 1319.38 3143.26 1319.38 3138.61 1319.38 3134.31 1318.65 3130.36 1317.18L3130.36 1306.83C3134.65 1309.44 3138.84 1310.74 3142.95 1310.74 3148.11 1310.74 3150.69 1309.36 3150.69 1306.6 3150.69 1304.64 3148.56 1303 3144.3 1301.68 3138.98 1300.03 3135.33 1298.19 3133.34 1296.16 3131.36 1294.13 3130.36 1291.39 3130.36 1287.93 3130.36 1283.72 3132.06 1280.42 3135.47 1278.03 3138.88 1275.64 3143.35 1274.45 3148.87 1274.45ZM3088.35 1274.45C3093.23 1274.45 3096.84 1275.12 3099.19 1276.46L3099.19 1287.19C3096.32 1285.1 3093.2 1284.05 3089.82 1284.05 3086 1284.05 3082.93 1285.22 3080.62 1287.54 3078.31 1289.87 3077.16 1293.05 3077.16 1297.11 3077.16 1301.03 3078.25 1304.13 3080.45 1306.39 3082.64 1308.65 3085.62 1309.78 3089.39 1309.78 3092.72 1309.78 3095.97 1308.72 3099.15 1306.6L3099.15 1316.75C3096.16 1318.51 3091.9 1319.38 3086.37 1319.38 3079.84 1319.38 3074.56 1317.39 3070.53 1313.42 3066.51 1309.44 3064.49 1304.29 3064.49 1297.96 3064.49 1290.68 3066.66 1284.94 3071 1280.74 3075.34 1276.55 3081.12 1274.45 3088.35 1274.45ZM3038.62 1274.45C3044.69 1274.45 3049.44 1276.29 3052.86 1279.97 3056.28 1283.65 3057.99 1288.7 3057.99 1295.13L3057.99 1300.44 3029.8 1300.44C3030.23 1307.08 3034.24 1310.4 3041.8 1310.4 3046.52 1310.4 3050.69 1309.23 3054.31 1306.91L3054.31 1316.09C3050.41 1318.29 3045.3 1319.38 3038.97 1319.38 3032.16 1319.38 3026.86 1317.46 3023.08 1313.61 3019.3 1309.76 3017.4 1304.4 3017.4 1297.53 3017.4 1290.69 3019.42 1285.13 3023.45 1280.86 3027.47 1276.58 3032.53 1274.45 3038.62 1274.45ZM2785.84 1274.45C2791.9 1274.45 2796.65 1276.29 2800.07 1279.97 2803.49 1283.65 2805.2 1288.7 2805.2 1295.13L2805.2 1300.44 2777.01 1300.44C2777.45 1307.08 2781.45 1310.4 2789.01 1310.4 2793.74 1310.4 2797.91 1309.23 2801.52 1306.91L2801.52 1316.09C2797.62 1318.29 2792.51 1319.38 2786.19 1319.38 2779.37 1319.38 2774.07 1317.46 2770.29 1313.61 2766.51 1309.76 2764.62 1304.4 2764.62 1297.53 2764.62 1290.69 2766.63 1285.13 2770.66 1280.86 2774.69 1276.58 2779.75 1274.45 2785.84 1274.45ZM2719.39 1274.45C2724.83 1274.45 2729.09 1276.35 2732.17 1280.16 2735.24 1283.97 2736.77 1289.15 2736.77 1295.71 2736.77 1302.87 2734.99 1308.6 2731.43 1312.91 2727.87 1317.23 2723.2 1319.38 2717.41 1319.38 2712.17 1319.38 2708.2 1317.32 2705.49 1313.19L2705.33 1313.19 2705.33 1338.06 2692.82 1338.06 2692.82 1275.49 2705.33 1275.49 2705.33 1282.04 2705.49 1282.04C2708.76 1276.98 2713.4 1274.45 2719.39 1274.45ZM2649.68 1274.45C2654.56 1274.45 2658.18 1275.12 2660.53 1276.46L2660.53 1287.19C2657.66 1285.1 2654.54 1284.05 2651.16 1284.05 2647.34 1284.05 2644.27 1285.22 2641.96 1287.54 2639.65 1289.87 2638.49 1293.05 2638.49 1297.11 2638.49 1301.03 2639.59 1304.13 2641.79 1306.39 2643.98 1308.65 2646.96 1309.78 2650.73 1309.78 2654.06 1309.78 2657.31 1308.72 2660.49 1306.6L2660.49 1316.75C2657.49 1318.51 2653.23 1319.38 2647.71 1319.38 2641.18 1319.38 2635.9 1317.39 2631.87 1313.42 2627.84 1309.44 2625.83 1304.29 2625.83 1297.96 2625.83 1290.68 2628 1284.94 2632.34 1280.74 2636.67 1276.55 2642.46 1274.45 2649.68 1274.45ZM2602.79 1274.45C2612.29 1274.45 2617.04 1280.34 2617.04 1292.11L2617.04 1318.34 2604.61 1318.34 2604.61 1294.44C2604.61 1287.51 2602.12 1284.05 2597.14 1284.05 2594.76 1284.05 2592.79 1284.98 2591.21 1286.82 2589.64 1288.67 2588.85 1291.03 2588.85 1293.89L2588.85 1318.34 2576.34 1318.34 2576.34 1275.49 2588.85 1275.49 2588.85 1282.31 2589.01 1282.31C2592.13 1277.07 2596.72 1274.45 2602.79 1274.45ZM2947.24 1268.25 2947.24 1287.62 2952.78 1287.62C2960.29 1287.62 2964.04 1284.35 2964.04 1277.82 2964.04 1271.44 2960.33 1268.25 2952.89 1268.25ZM2481.32 1268.25 2481.32 1287.62 2486.85 1287.62C2494.36 1287.62 2498.12 1284.35 2498.12 1277.82 2498.12 1271.44 2494.4 1268.25 2486.97 1268.25ZM2861.81 1265.77C2859.9 1265.77 2858.32 1266.32 2857.05 1267.42 2855.79 1268.51 2855.15 1269.86 2855.15 1271.46 2855.15 1274.59 2856.92 1277.18 2860.46 1279.25 2865.31 1277.47 2867.74 1274.8 2867.74 1271.23 2867.74 1269.6 2867.15 1268.29 2865.98 1267.28 2864.8 1266.27 2863.41 1265.77 2861.81 1265.77ZM2934.46 1258.33 2955.1 1258.33C2970.02 1258.33 2977.48 1264.66 2977.48 1277.31 2977.48 1283.46 2975.23 1288.39 2970.72 1292.09 2966.22 1295.8 2960.58 1297.57 2953.82 1297.42L2947.24 1297.42 2947.24 1318.34 2934.46 1318.34ZM2468.54 1258.33 2489.18 1258.33C2504.1 1258.33 2511.56 1264.66 2511.56 1277.31 2511.56 1283.46 2509.31 1288.39 2504.8 1292.09 2500.3 1295.8 2494.66 1297.57 2487.9 1297.42L2481.32 1297.42 2481.32 1318.34 2468.54 1318.34ZM2861.81 1257.32C2866.85 1257.32 2870.95 1258.54 2874.11 1260.97 2877.27 1263.39 2878.85 1266.52 2878.85 1270.34 2878.85 1276.44 2875.28 1280.98 2868.12 1283.98 2873.65 1286.46 2878.48 1290.76 2882.61 1296.88 2886.89 1291.48 2889.04 1284.92 2889.04 1277.2 2889.04 1275.05 2888.76 1273.13 2888.22 1271.43L2898.99 1271.43C2899.53 1272.95 2899.8 1274.81 2899.8 1277 2899.8 1287.26 2895.94 1296.53 2888.22 1304.82 2891.24 1308.05 2894.11 1309.66 2896.82 1309.66 2899.53 1309.66 2902.02 1309.1 2904.29 1307.99L2904.29 1317.56C2901.45 1318.72 2898.38 1319.31 2895.08 1319.31 2890.02 1319.31 2885.27 1316.76 2880.83 1311.67 2874.58 1316.76 2867.34 1319.31 2859.1 1319.31 2852.24 1319.31 2846.79 1317.69 2842.76 1314.44 2838.73 1311.2 2836.72 1306.74 2836.72 1301.06 2836.72 1293.21 2841.55 1287.4 2851.2 1283.63 2846.35 1279.83 2843.92 1275.66 2843.92 1271.12 2843.92 1266.91 2845.53 1263.55 2848.74 1261.06 2851.96 1258.57 2856.31 1257.32 2861.81 1257.32ZM3177.26 1255.19C3179.42 1255.19 3181.18 1255.81 3182.52 1257.03 3183.86 1258.26 3184.54 1259.8 3184.54 1261.66 3184.54 1263.55 3183.85 1265.12 3182.48 1266.37 3181.12 1267.62 3179.37 1268.25 3177.26 1268.25 3175.16 1268.25 3173.43 1267.62 3172.07 1266.35 3170.7 1265.09 3170.01 1263.52 3170.01 1261.66 3170.01 1259.75 3170.69 1258.2 3172.05 1257 3173.4 1255.79 3175.14 1255.19 3177.26 1255.19ZM3115.3 1255.19C3117.47 1255.19 3119.22 1255.81 3120.56 1257.03 3121.91 1258.26 3122.58 1259.8 3122.58 1261.66 3122.58 1263.55 3121.89 1265.12 3120.53 1266.37 3119.16 1267.62 3117.41 1268.25 3115.3 1268.25 3113.21 1268.25 3111.48 1267.62 3110.11 1266.35 3108.74 1265.09 3108.06 1263.52 3108.06 1261.66 3108.06 1259.75 3108.73 1258.2 3110.09 1257 3111.44 1255.79 3113.18 1255.19 3115.3 1255.19ZM2676.64 1255.19C2678.81 1255.19 2680.56 1255.81 2681.9 1257.03 2683.25 1258.26 2683.92 1259.8 2683.92 1261.66 2683.92 1263.55 2683.23 1265.12 2681.86 1266.37 2680.5 1267.62 2678.75 1268.25 2676.64 1268.25 2674.55 1268.25 2672.82 1267.62 2671.45 1266.35 2670.08 1265.09 2669.4 1263.52 2669.4 1261.66 2669.4 1259.75 2670.07 1258.2 2671.43 1257 2672.78 1255.79 2674.52 1255.19 2676.64 1255.19ZM2560.16 1255.19C2562.32 1255.19 2564.08 1255.81 2565.42 1257.03 2566.76 1258.26 2567.44 1259.8 2567.44 1261.66 2567.44 1263.55 2566.75 1265.12 2565.38 1266.37 2564.02 1267.62 2562.27 1268.25 2560.16 1268.25 2558.07 1268.25 2556.34 1267.62 2554.97 1266.35 2553.6 1265.09 2552.91 1263.52 2552.91 1261.66 2552.91 1259.75 2553.59 1258.2 2554.95 1257 2556.3 1255.79 2558.04 1255.19 2560.16 1255.19ZM2744.67 1254.92 2757.14 1254.92 2757.14 1318.34 2744.67 1318.34ZM2605.06 1193.86 2605.06 1197.8C2608.43 1201.27 2612.11 1204.3 2616.08 1206.89 2615.75 1204.63 2615.24 1202.25 2614.55 1199.77 2617.48 1200.25 2620.25 1200.49 2622.88 1200.49 2625.21 1200.49 2626.37 1199.44 2626.37 1197.35L2626.37 1193.86ZM2485.87 1171.29C2492.08 1184.72 2497.36 1197.44 2501.72 1209.45L2488.83 1214.2C2484.53 1201.06 2479.6 1188.25 2474.05 1175.76ZM2528.05 1171.02 2541.12 1175.5C2535.45 1188.99 2529.35 1202.4 2522.81 1215.72L2551.33 1215.72 2551.33 1227.72 2463.57 1227.72 2463.57 1215.72 2508.89 1215.72C2515.96 1201.74 2522.35 1186.84 2528.05 1171.02ZM2787.92 1142.98C2789.89 1147.9 2791.38 1152.03 2792.4 1155.34L2825.17 1155.34 2825.17 1167.16 2773.86 1167.16C2773.8 1170.87 2773.7 1174.69 2773.55 1178.63L2815.41 1178.63C2815.14 1186.48 2814.78 1194.58 2814.34 1202.93 2813.89 1211.28 2813.46 1216.47 2813.06 1218.5 2812.66 1220.53 2811.81 1222.43 2810.51 1224.21 2809.21 1225.98 2807.65 1227.25 2805.83 1228.01 2804.01 1228.78 2801.18 1229.28 2797.34 1229.51 2793.51 1229.75 2787.5 1229.87 2779.32 1229.87 2778.25 1224.5 2777.17 1219.93 2776.1 1216.17 2783.53 1216.47 2788.65 1216.61 2791.46 1216.61 2793.46 1216.61 2794.99 1216.44 2796.05 1216.1 2797.1 1215.76 2797.98 1215.2 2798.66 1214.44 2799.35 1213.68 2799.81 1212.82 2800.05 1211.87 2800.29 1210.91 2800.55 1207.63 2800.84 1202.01 2801.12 1196.4 2801.26 1192.55 2801.26 1190.46L2772.96 1190.46C2771.14 1207.57 2762.73 1221.33 2747.71 1231.75 2746.22 1229.6 2743 1225.66 2738.04 1219.93 2744.64 1215.63 2749.64 1210.78 2753.06 1205.37 2756.48 1199.97 2758.49 1194.66 2759.08 1189.45 2759.68 1184.24 2760.05 1176.81 2760.2 1167.16L2740.01 1167.16 2740.01 1155.34 2777.22 1155.34 2773.68 1146.29ZM2680.82 1142.89 2694.61 1142.89 2693 1162.86 2731.15 1162.86 2729.04 1197.67C2728.35 1208.9 2727.78 1215.61 2727.32 1217.82 2726.85 1220.03 2725.83 1222.12 2724.25 1224.09 2722.67 1226.07 2720.68 1227.5 2718.29 1228.39 2715.91 1229.29 2711.54 1229.82 2705.2 1229.98 2698.86 1230.15 2694.19 1230.17 2691.21 1230.05 2690.67 1226.65 2689.56 1222.17 2687.89 1216.61 2695.21 1217.12 2700.98 1217.38 2705.22 1217.38 2708.56 1217.38 2710.88 1217.05 2712.18 1216.41 2713.48 1215.77 2714.38 1214.84 2714.87 1213.64 2715.36 1212.43 2715.86 1208.38 2716.37 1201.5 2716.88 1194.61 2717.41 1185.68 2717.98 1174.69L2692.1 1174.69C2691.53 1179.98 2690.55 1184.99 2689.15 1189.74L2697.21 1182.21C2701.39 1185.86 2706.4 1190.37 2712.25 1195.74L2702.76 1204.88C2697.42 1198.79 2692.82 1193.93 2688.97 1190.32 2683.8 1207.58 2673.21 1221.39 2657.18 1231.75 2652.94 1227.75 2649.39 1224.56 2646.52 1222.17 2665.48 1210.73 2676.19 1194.91 2678.67 1174.69L2648.4 1174.69 2648.4 1162.86 2664.43 1162.86C2661.3 1158.83 2657.72 1154.71 2653.69 1150.5L2662.46 1142.98C2667.12 1147.28 2671.33 1151.37 2675.09 1155.25L2666.63 1162.86 2679.57 1162.86ZM2607.75 1142.53 2619.48 1142.53C2618.64 1144.77 2617.69 1146.98 2616.61 1149.16L2642.49 1149.16 2642.49 1157.76 2628.97 1157.76C2630.28 1160.36 2631.45 1162.89 2632.46 1165.37L2620.91 1167.7C2619.81 1164.15 2618.52 1160.83 2617.06 1157.76L2611.69 1157.76C2609.84 1160.6 2607.75 1163.4 2605.42 1166.18L2605.06 1166 2605.06 1169.67 2642.13 1169.67 2642.13 1178.99 2605.06 1178.99 2605.06 1184.72 2638.01 1184.72 2638.01 1198.97C2638.01 1201.86 2637.13 1204.38 2635.35 1206.51 2633.57 1208.65 2628.76 1209.72 2620.91 1209.72 2627.69 1213.3 2635.3 1215.75 2643.75 1217.06 2641.66 1220.41 2639.57 1224.23 2637.48 1228.53 2624.1 1224.44 2613.3 1218.17 2605.06 1209.72L2605.06 1231.4 2593.24 1231.4 2593.24 1209.4C2584.49 1217.97 2573.69 1224.56 2560.82 1229.16 2559.15 1225.75 2557.09 1222.08 2554.65 1218.14 2570.55 1213.78 2583.42 1206.91 2593.24 1197.53L2593.24 1193.86 2573.99 1193.86 2573.99 1209.9 2562.35 1209.9 2562.35 1184.72 2593.24 1184.72 2593.24 1178.99 2556.53 1178.99 2556.53 1169.67 2593.24 1169.67 2593.24 1165.64 2604.39 1165.64C2601.49 1164.15 2598.34 1162.63 2594.94 1161.07L2597.74 1157.76 2585.18 1157.76C2586.46 1160.33 2587.75 1163.1 2589.03 1166.09L2577.48 1168.42C2576.32 1164.78 2575.02 1161.22 2573.59 1157.76L2571.75 1157.76C2567.99 1162.18 2563.9 1166 2559.48 1169.22 2558.47 1166.18 2556.76 1162.63 2554.38 1158.56 2560.35 1154.68 2565.33 1149.37 2569.33 1142.62L2582.05 1142.62C2580.79 1144.92 2579.5 1147.1 2578.15 1149.16L2597.9 1149.16 2597.9 1157.58 2602.04 1152.67C2604.17 1149.58 2606.08 1146.2 2607.75 1142.53ZM2508.62 1141.9C2511.78 1146.38 2514.59 1150.8 2517.03 1155.16L2510.9 1158.03 2549.36 1158.03 2549.36 1169.85 2465.9 1169.85 2465.9 1158.03 2502.8 1158.03C2501.04 1154.74 2498.89 1151.22 2496.35 1147.46ZM2437.81 1105.01 2437.81 1363.34 3386.83 1363.34 3386.83 1105.01ZM1086.58 1043.61 1086.58 1114.5 1180.39 1114.5 1163.25 1220.84 1504.22 1220.84C1502.28 1247.76 1499.28 1264.47 1495.21 1270.96 1491.15 1277.45 1483.98 1282 1473.72 1284.61 1463.46 1287.23 1445.84 1288.54 1420.86 1288.54 1389.5 1288.54 1345.64 1286.31 1289.3 1281.85 1298.21 1311.3 1305.37 1338.8 1310.79 1364.37 1391.53 1364.37 1446.86 1364.17 1476.77 1363.79 1506.68 1363.4 1531.08 1356.28 1549.96 1342.43 1568.84 1328.58 1579.73 1306.84 1582.63 1277.21L1594.25 1151.11 1257.93 1151.11 1263.45 1114.5 1663.37 1114.5 1663.37 1043.61ZM2881.97 982.265 2873.88 983.31C2869.36 983.904 2867.1 985.945 2867.1 989.431 2867.1 991.032 2867.65 992.323 2868.75 993.305 2869.85 994.286 2871.33 994.777 2873.18 994.777 2875.74 994.777 2877.84 993.873 2879.5 992.065 2881.15 990.257 2881.97 988.011 2881.97 985.325ZM2684.83 973.2C2678.79 975.989 2675.77 979.901 2675.77 984.937 2675.77 987.701 2676.72 989.928 2678.62 991.62 2680.52 993.311 2683 994.157 2686.07 994.157 2691.8 994.157 2697.02 992.13 2701.72 988.075 2697.28 980.973 2691.65 976.015 2684.83 973.2ZM2963.45 968.435C2960.17 968.435 2957.62 969.559 2955.8 971.805 2953.98 974.052 2953.07 977.229 2953.07 981.335 2953.07 989.883 2956.56 994.157 2963.53 994.157 2970.21 994.157 2973.56 989.767 2973.56 980.986 2973.56 972.619 2970.19 968.435 2963.45 968.435ZM2830.2 967.389C2828.06 967.389 2826.16 968.267 2824.51 970.023 2822.86 971.779 2821.82 974.104 2821.41 976.996L2837.98 976.996C2837.98 970.591 2835.39 967.389 2830.2 967.389ZM2612.11 967.389C2609.97 967.389 2608.07 968.267 2606.42 970.023 2604.77 971.779 2603.73 974.104 2603.32 976.996L2619.89 976.996C2619.89 970.591 2617.3 967.389 2612.11 967.389ZM2518.51 959.873 2531.02 959.873 2531.02 984.55C2531.02 990.955 2533.53 994.157 2538.54 994.157 2541.04 994.157 2543.04 993.279 2544.54 991.523 2546.03 989.767 2546.78 987.391 2546.78 984.395L2546.78 959.873 2559.21 959.873 2559.21 1002.72 2546.78 1002.72 2546.78 996.171 2546.59 996.171C2543.39 1001.23 2539.01 1003.76 2533.46 1003.76 2523.5 1003.76 2518.51 997.747 2518.51 985.712ZM3021.46 958.828C3030.96 958.828 3035.71 964.716 3035.71 976.492L3035.71 1002.72 3023.28 1002.72 3023.28 978.817C3023.28 971.895 3020.79 968.435 3015.8 968.435 3013.43 968.435 3011.45 969.358 3009.88 971.205 3008.3 973.051 3007.52 975.408 3007.52 978.274L3007.52 1002.72 2995.01 1002.72 2995.01 959.873 3007.52 959.873 3007.52 966.692 3007.67 966.692C3010.8 961.449 3015.39 958.828 3021.46 958.828ZM2963.76 958.828C2970.65 958.828 2976.12 960.81 2980.18 964.774 2984.23 968.738 2986.26 974.065 2986.26 980.754 2986.26 987.778 2984.18 993.37 2980.02 997.527 2975.87 1001.69 2970.24 1003.76 2963.14 1003.76 2956.17 1003.76 2950.64 1001.77 2946.55 997.779 2942.45 993.789 2940.41 988.359 2940.41 981.49 2940.41 974.439 2942.52 968.9 2946.74 964.871 2950.96 960.842 2956.63 958.828 2963.76 958.828ZM2920.7 958.828C2924.62 958.828 2928.4 959.409 2932.04 960.571L2932.04 970.41C2928.71 968.448 2925.05 967.466 2921.05 967.466 2919.06 967.466 2917.46 967.822 2916.24 968.532 2915.03 969.242 2914.42 970.178 2914.42 971.34 2914.42 973.303 2916.23 974.891 2919.85 976.105 2923.72 977.396 2926.63 978.571 2928.58 979.631 2930.53 980.689 2932.01 982.084 2933.03 983.814 2934.05 985.544 2934.56 987.546 2934.56 989.818 2934.56 994.235 2932.79 997.663 2929.26 1000.1 2925.72 1002.54 2921 1003.76 2915.08 1003.76 2910.44 1003.76 2906.14 1003.03 2902.19 1001.56L2902.19 991.213C2906.47 993.821 2910.67 995.126 2914.77 995.126 2919.94 995.126 2922.52 993.744 2922.52 990.981 2922.52 989.018 2920.39 987.378 2916.13 986.061 2910.81 984.408 2907.16 982.568 2905.17 980.541 2903.18 978.513 2902.19 975.769 2902.19 972.309 2902.19 968.099 2903.89 964.8 2907.3 962.411 2910.71 960.022 2915.17 958.828 2920.7 958.828ZM2875.82 958.828C2887.8 958.828 2893.79 964.832 2893.79 976.841L2893.79 1002.72 2881.9 1002.72 2881.9 996.481 2881.74 996.481C2878.83 1001.34 2874.55 1003.76 2868.93 1003.76 2864.87 1003.76 2861.63 1002.61 2859.19 1000.3 2856.75 997.986 2855.53 994.842 2855.53 990.865 2855.53 982.652 2860.42 977.874 2870.2 976.531L2881.97 974.943C2881.97 969.958 2879.38 967.466 2874.19 967.466 2869.08 967.466 2864.27 969.016 2859.75 972.115L2859.75 962.469C2861.68 961.384 2864.27 960.506 2867.51 959.835 2870.75 959.164 2873.52 958.828 2875.82 958.828ZM2830.28 958.828C2836.35 958.828 2841.09 960.668 2844.51 964.348 2847.93 968.028 2849.64 973.084 2849.64 979.514L2849.64 984.821 2821.45 984.821C2821.89 991.459 2825.89 994.777 2833.45 994.777 2838.18 994.777 2842.35 993.615 2845.96 991.29L2845.96 1000.47C2842.06 1002.67 2836.95 1003.76 2830.63 1003.76 2823.81 1003.76 2818.51 1001.84 2814.73 997.992 2810.95 994.144 2809.06 988.786 2809.06 981.916 2809.06 975.072 2811.07 969.513 2815.1 965.239 2819.13 960.965 2824.19 958.828 2830.28 958.828ZM2612.19 958.828C2618.25 958.828 2623 960.668 2626.42 964.348 2629.84 968.028 2631.55 973.084 2631.55 979.514L2631.55 984.821 2603.36 984.821C2603.8 991.459 2607.8 994.777 2615.36 994.777 2620.09 994.777 2624.26 993.615 2627.87 991.29L2627.87 1000.47C2623.97 1002.67 2618.86 1003.76 2612.54 1003.76 2605.72 1003.76 2600.42 1001.84 2596.64 997.992 2592.86 994.144 2590.97 988.786 2590.97 981.916 2590.97 975.072 2592.98 969.513 2597.01 965.239 2601.03 960.965 2606.09 958.828 2612.19 958.828ZM2773.59 952.436 2773.59 969.713 2779.86 969.713C2782.85 969.713 2785.26 968.842 2787.08 967.099 2788.9 965.355 2789.81 963.179 2789.81 960.571 2789.81 955.148 2786.57 952.436 2780.09 952.436ZM2478.67 952.436 2478.67 969.713 2484.94 969.713C2487.94 969.713 2490.34 968.842 2492.16 967.099 2493.98 965.355 2494.89 963.179 2494.89 960.571 2494.89 955.148 2491.65 952.436 2485.17 952.436ZM2688.16 950.15C2686.25 950.15 2684.67 950.699 2683.4 951.797 2682.14 952.894 2681.5 954.244 2681.5 955.845 2681.5 958.97 2683.27 961.565 2686.81 963.631 2691.66 961.849 2694.09 959.177 2694.09 955.612 2694.09 953.985 2693.5 952.668 2692.33 951.661 2691.15 950.654 2689.76 950.15 2688.16 950.15ZM2760.81 942.713 2781.84 942.713C2796.11 942.713 2803.25 948.136 2803.25 958.983 2803.25 963.063 2802.06 966.563 2799.67 969.481 2797.28 972.399 2793.99 974.452 2789.81 975.64L2789.81 975.795C2792.57 976.725 2795.63 979.772 2798.99 984.937L2810.3 1002.72 2795.58 1002.72 2786.17 987.106C2784.24 983.878 2782.65 981.8 2781.41 980.87 2780.17 979.94 2778.85 979.475 2777.46 979.475L2773.59 979.475 2773.59 1002.72 2760.81 1002.72ZM2465.89 942.713 2486.92 942.713C2501.19 942.713 2508.33 948.136 2508.33 958.983 2508.33 963.063 2507.14 966.563 2504.75 969.481 2502.36 972.399 2499.08 974.452 2494.89 975.64L2494.89 975.795C2497.66 976.725 2500.72 979.772 2504.07 984.937L2515.38 1002.72 2500.66 1002.72 2491.25 987.106C2489.32 983.878 2487.73 981.8 2486.49 980.87 2485.25 979.94 2483.93 979.475 2482.54 979.475L2478.67 979.475 2478.67 1002.72 2465.89 1002.72ZM2688.16 941.705C2693.2 941.705 2697.3 942.919 2700.46 945.347 2703.62 947.774 2705.2 950.899 2705.2 954.721 2705.2 960.816 2701.63 965.362 2694.48 968.358 2700 970.837 2704.83 975.137 2708.96 981.257 2713.24 975.86 2715.39 969.3 2715.39 961.578 2715.39 959.435 2715.11 957.511 2714.57 955.806L2725.34 955.806C2725.88 957.33 2726.15 959.19 2726.15 961.384 2726.15 971.637 2722.29 980.909 2714.57 989.199 2717.59 992.427 2720.46 994.041 2723.17 994.041 2725.88 994.041 2728.37 993.485 2730.64 992.375L2730.64 1001.94C2727.8 1003.11 2724.73 1003.69 2721.43 1003.69 2716.37 1003.69 2711.62 1001.14 2707.18 996.055 2700.93 1001.14 2693.69 1003.69 2685.45 1003.69 2678.59 1003.69 2673.14 1002.07 2669.11 998.825 2665.08 995.584 2663.07 991.123 2663.07 985.441 2663.07 977.59 2667.9 971.779 2677.55 968.009 2672.7 964.212 2670.27 960.042 2670.27 955.496 2670.27 951.286 2671.88 947.936 2675.09 945.444 2678.31 942.952 2682.66 941.705 2688.16 941.705ZM2571.02 939.304 2583.49 939.304 2583.49 1002.72 2571.02 1002.72ZM2513.94 898.487 2513.94 903.772 2535.79 903.772 2535.79 898.487ZM1243.99 886.141 1508.28 886.141 1508.28 941.344 1243.99 941.344ZM2513.94 885.049 2513.94 890.245 2535.79 890.245 2535.79 885.049ZM2513.94 871.612 2513.94 876.808 2535.79 876.808 2535.79 871.612ZM2735.48 865.341 2824.41 865.341 2824.41 876.27 2762.75 876.27 2761.9 881.914 2813.75 881.914 2811.96 901.353C2811.51 905.922 2809.83 909.274 2806.92 911.409 2804.01 913.544 2800.25 914.641 2795.64 914.701 2791.03 914.761 2782.5 914.791 2770.05 914.791 2769.21 910.849 2768.11 906.609 2766.74 902.07 2775.42 902.757 2782.18 903.1 2787.02 903.1 2790.87 903.1 2793.59 902.899 2795.17 902.495 2796.75 902.092 2797.85 901.391 2798.48 900.39 2799.11 899.39 2799.57 896.814 2799.87 892.664L2747.3 892.664 2749.95 876.27 2735.48 876.27ZM2488.15 860.056C2485.82 863.878 2483.38 867.551 2480.81 871.074L2480.81 906.191C2485.82 898.188 2488.27 886.632 2488.15 871.522ZM2616.83 859.25 2616.83 867.85 2625.61 867.85 2625.61 859.25ZM2596.59 859.25 2596.59 867.85 2605.37 867.85 2605.37 859.25ZM2616.83 841.423 2616.83 849.933 2625.61 849.933 2625.61 841.423ZM2596.59 841.423 2596.59 849.933 2605.37 849.933 2605.37 841.423ZM2518.87 841.333C2512.12 841.751 2505.4 842.08 2498.72 842.319L2498.72 847.693 2518.87 847.693ZM2759.75 841.065 2759.75 849.575 2800.5 849.575 2800.5 841.065ZM2585.4 831.389 2636.8 831.389 2636.8 877.883 2616.83 877.883 2616.83 884.333 2637.25 884.333 2637.25 894.545 2616.83 894.545 2616.83 902.339 2641.19 902.339 2641.19 912.551 2579.76 912.551 2579.76 903.1C2571.88 905.28 2563.4 907.833 2554.33 910.76L2551.82 898.039 2562.48 895.62 2562.48 873.583 2553.88 873.583 2553.88 862.474 2562.48 862.474 2562.48 843.662 2553.52 843.662 2553.52 832.375 2582.89 832.375 2582.89 843.662 2573.94 843.662 2573.94 862.474 2582.27 862.474 2582.27 873.583 2573.94 873.583 2573.94 892.708C2577.13 891.842 2580.24 890.962 2583.25 890.066 2583.01 894.306 2582.98 898.397 2583.16 902.339L2605.37 902.339 2605.37 894.545 2584.95 894.545 2584.95 884.333 2605.37 884.333 2605.37 877.883 2585.4 877.883ZM2746.86 830.404 2813.39 830.404 2813.39 860.235 2746.86 860.235ZM2544.39 829.418 2547.61 838.914C2541.76 839.572 2535.91 840.139 2530.06 840.616L2530.06 847.693 2548.33 847.693 2548.33 856.831 2530.06 856.831 2530.06 862.833 2546.36 862.833 2546.36 915.686 2535.79 915.686 2535.79 912.551 2513.94 912.551 2513.94 915.686 2503.37 915.686 2503.37 862.833 2518.87 862.833 2518.87 856.831 2498.72 856.831 2498.72 874.479C2498.84 891.738 2495.49 905.564 2488.69 915.955 2486.12 912.671 2483.49 909.655 2480.81 906.907L2480.81 915.418 2470.15 915.418 2470.15 883.885C2468.18 885.915 2466.18 887.856 2464.15 889.708 2463.08 886.363 2461.64 882.362 2459.85 877.704 2466.36 871.91 2472.87 863.639 2479.38 852.889L2488.15 858.712 2488.15 833.002C2509.22 832.405 2527.97 831.21 2544.39 829.418ZM2478.3 827.358 2487.7 833.45C2481.43 843.722 2474.24 852.471 2466.12 859.698 2464.21 856.413 2462.09 852.949 2459.76 849.306 2467.05 843.573 2473.23 836.257 2478.3 827.358ZM2678.17 827.269 2691.96 827.269 2690.35 847.245 2728.5 847.245 2726.39 882.048C2725.71 893.276 2725.13 899.995 2724.67 902.204 2724.21 904.414 2723.19 906.505 2721.6 908.475 2720.02 910.446 2718.04 911.879 2715.65 912.775 2713.26 913.671 2708.89 914.201 2702.55 914.365 2696.21 914.53 2691.54 914.552 2688.56 914.432 2688.02 911.028 2686.92 906.549 2685.25 900.995 2692.56 901.503 2698.34 901.756 2702.57 901.756 2705.92 901.756 2708.24 901.436 2709.54 900.793 2710.83 900.152 2711.73 899.226 2712.22 898.016 2712.72 896.807 2713.22 892.761 2713.72 885.878 2714.23 878.995 2714.77 870.059 2715.33 859.07L2689.46 859.07C2688.89 864.356 2687.9 869.372 2686.5 874.12L2694.56 866.595C2698.74 870.238 2703.75 874.747 2709.6 880.122L2700.11 889.26C2694.77 883.168 2690.17 878.316 2686.32 874.702 2681.16 891.962 2670.56 905.773 2654.53 916.135 2650.29 912.133 2646.74 908.938 2643.88 906.549 2662.83 895.113 2673.55 879.286 2676.02 859.07L2645.76 859.07 2645.76 847.245 2661.78 847.245C2658.65 843.214 2655.07 839.093 2651.04 834.883L2659.81 827.358C2664.47 831.659 2668.68 835.749 2672.44 839.631L2663.98 847.245 2676.92 847.245ZM1160.35 816.994 1160.35 1010.49 1591.92 1010.49 1591.92 816.994ZM2080.82 797.237 1988.46 818.737 2011.4 877.426 1770.06 877.426 1770.06 954.127 1901.04 954.127C1900.07 1016.69 1897.65 1064.87 1893.78 1098.67 1889.91 1132.47 1876.89 1166.9 1854.72 1201.96 1832.55 1237.01 1800.07 1268.49 1757.28 1296.38 1789.42 1333.57 1810.33 1359.14 1820.01 1373.08 1917.4 1305.48 1972 1216.19 1983.81 1105.21L2167.36 1105.21C2167.36 1118.77 2166.44 1143.75 2164.6 1180.17 2162.77 1216.58 2161.07 1237.89 2159.52 1244.08 2157.97 1250.28 2154.97 1255.85 2150.52 1260.79 2146.07 1265.73 2140.4 1269.31 2133.53 1271.54 2126.66 1273.77 2116.73 1274.88 2103.76 1274.88 2085.56 1274.88 2052.36 1273.91 2004.14 1271.98 2011.11 1296.38 2018.08 1326.02 2025.05 1360.88 2078.11 1360.88 2117.07 1360.11 2141.95 1358.56 2166.83 1357.01 2185.18 1353.76 2196.99 1348.82 2208.8 1343.88 2218.91 1335.65 2227.34 1324.13 2235.76 1312.6 2241.28 1300.25 2243.89 1287.08 2246.51 1273.91 2249.26 1240.26 2252.17 1186.12 2255.07 1131.98 2257.4 1079.45 2259.14 1028.5L1987.59 1028.5C1988.56 1002.94 1989.24 978.145 1989.62 954.127L2322.45 954.127 2322.45 877.426 2109.86 877.426C2103.28 855.925 2093.6 829.196 2080.82 797.237ZM2435.17 789.395 2435.17 1047.72 3384.18 1047.72 3384.18 789.395ZM3514.21-14.0001 4400-14.0001 4400 2489 3624.81 2489 3624.81 2489 285.274 2489 285.274 2489 0 2489 0-14.0001 378.241-14.0001 885.791-14.0001 3514.21-14.0001Z" fill="#FFFFFF" fill-rule="evenodd"/><path d="M1010.5 766.5 2444.28 766.5" stroke="url(#stroke1)" stroke-width="6.875" stroke-miterlimit="8" fill="none" fill-rule="evenodd"/><path d="M958.5 1415.5 2444.5 1415.5" stroke="url(#stroke2)" stroke-width="6.875" stroke-miterlimit="8" fill="none" fill-rule="evenodd"/><path d="M2373.5 685.5 2373.5 1474.93" stroke="url(#stroke3)" stroke-width="6.875" stroke-miterlimit="8" fill="none" fill-rule="evenodd"/><path d="M1053.5 685.5 1053.5 1474.93" stroke="url(#stroke4)" stroke-width="6.875" stroke-miterlimit="8" fill="none" fill-rule="evenodd"/></g></svg>