<svg width="2466" height="1271" xmlns="http://www.w3.org/2000/svg" xmlns:xlink="http://www.w3.org/1999/xlink" xml:space="preserve" overflow="hidden"><g transform="translate(-745 -492)"><path d="M935.969 750.969 935.969 1725.03 1910.03 1725.03 1910.03 750.969ZM903.5 718.5 1942.5 718.5 1942.5 1757.5 903.5 1757.5Z" stroke="#FFFFFF" stroke-width="9.16667" stroke-miterlimit="8" fill-rule="evenodd"/><path d="M2550.7 804.166C2571.59 804.166 2589.3 811.759 2603.81 826.944 2618.32 842.13 2625.58 860.593 2625.58 882.334 2625.58 904.074 2618.32 922.538 2603.81 937.723 2589.3 952.908 2571.59 960.501 2550.7 960.501 2530.13 960.501 2512.51 952.867 2497.84 937.598 2483.16 922.33 2475.82 903.908 2475.82 882.334 2475.82 860.759 2483.12 842.337 2497.71 827.069 2512.31 811.801 2529.97 804.166 2550.7 804.166ZM2767.87 712.556 2767.87 948.801C2767.87 984.98 2776 1012.7 2792.25 1031.95 2808.5 1051.2 2831.89 1060.82 2862.4 1060.82 2881.64 1060.82 2897.81 1057.13 2910.91 1049.75 2924.01 1042.36 2936.28 1030.04 2947.73 1012.78 2966.3 1044.81 2993.17 1060.82 3028.33 1060.82 3057.52 1060.82 3081.32 1051.2 3099.72 1031.95 3118.13 1012.7 3127.34 987.802 3127.34 957.265L3127.34 712.556 3026.34 712.556 3026.34 933.615C3026.34 951.539 3021.36 960.501 3011.41 960.501 3006.1 960.501 3002.54 958.675 3000.72 955.024 2998.89 951.373 2997.98 944.237 2997.98 933.615L2997.98 712.556 2896.98 712.556 2896.98 935.358C2896.98 952.12 2892 960.501 2882.05 960.501 2876.75 960.501 2873.22 958.759 2871.48 955.273 2869.74 951.788 2868.87 944.569 2868.87 933.615L2868.87 712.556ZM2224.57 712.556 2224.57 1052.36 2325.56 1052.36 2325.56 712.556ZM2078.29 712.556 2078.29 1052.36 2179.29 1052.36 2179.29 923.658 2207.4 923.658 2207.4 834.039 2179.29 834.039 2179.29 712.556ZM2553.68 704.092C2502.93 704.092 2460.02 721.352 2424.95 755.872 2389.87 790.392 2372.33 832.545 2372.33 882.334 2372.33 931.624 2389.75 973.695 2424.57 1008.55 2459.4 1043.4 2501.44 1060.82 2550.7 1060.82 2600.29 1060.82 2642.41 1043.48 2677.07 1008.8 2711.73 974.11 2729.06 931.956 2729.06 882.334 2729.06 833.541 2711.86 791.636 2677.44 756.619 2643.03 721.601 2601.78 704.092 2553.68 704.092ZM2006 597 3208 597 3208 1154 2006 1154Z" fill-rule="evenodd"/><path d="M2321.1 1411.27 2321.1 1541.98C2321.1 1577.6 2329.48 1605.43 2346.23 1625.47 2367.79 1651.15 2396.23 1663.99 2431.55 1663.99 2462.57 1663.99 2488.77 1652.93 2510.16 1630.82 2531.56 1608.7 2542.25 1581.57 2542.25 1549.44L2542.25 1411.27 2449.22 1411.27 2449.22 1551.18C2449.22 1565.26 2443.41 1572.3 2431.8 1572.3 2420.03 1572.3 2414.14 1565.26 2414.14 1551.18L2414.14 1411.27ZM2706.44 1402.58C2675.43 1402.58 2649.22 1413.63 2627.83 1435.75 2606.44 1457.87 2595.74 1485.08 2595.74 1517.38L2595.74 1655.54 2688.78 1655.54 2688.78 1515.64C2688.78 1501.39 2694.58 1494.27 2706.19 1494.27 2717.97 1494.27 2723.85 1501.39 2723.85 1515.64L2723.85 1655.54 2816.89 1655.54 2816.89 1524.83C2816.89 1489.05 2808.52 1461.14 2791.77 1441.09 2770.37 1415.41 2741.93 1402.58 2706.44 1402.58ZM3023.12 1316.35 3023.12 1519.37C3023.12 1552.33 3011.18 1568.82 2987.3 1568.82 2977.35 1568.82 2968.8 1565.38 2961.67 1558.51 2954.54 1551.63 2950.98 1543.39 2950.98 1533.78 2950.98 1523.84 2954.42 1515.35 2961.3 1508.31 2968.18 1501.27 2976.43 1497.75 2986.05 1497.75 2993.68 1497.75 3001.31 1500.73 3008.94 1506.69L3008.94 1404.32C2997.83 1403.32 2989.54 1402.82 2984.06 1402.82 2949.57 1402.82 2919.72 1415.58 2894.51 1441.09 2869.3 1466.6 2856.69 1496.84 2856.69 1531.79 2856.69 1567.91 2869.38 1598.39 2894.76 1623.24 2920.13 1648.09 2951.31 1660.51 2988.29 1660.51 3006.87 1660.51 3024.98 1656.45 3042.65 1648.34 3060.31 1640.22 3074.86 1629.28 3086.3 1615.54 3106.21 1591.68 3116.16 1560.78 3116.16 1522.85L3116.16 1316.35ZM2203.44 1307.9C2166.29 1307.9 2135.48 1320.86 2111.02 1346.79 2086.56 1372.72 2074.33 1405.47 2074.33 1445.07L2074.33 1655.54 2175.32 1655.54 2175.32 1567.08 2208.91 1567.08 2208.91 1476.13 2175.32 1476.13 2175.32 1434.13C2175.32 1412.6 2183.12 1401.83 2198.71 1401.83 2210.48 1401.83 2218.69 1408.29 2223.34 1421.21L2306.18 1360.83C2278.65 1325.54 2244.4 1307.9 2203.44 1307.9ZM2009 1201 3211 1201 3211 1757 2009 1757Z" fill-rule="evenodd"/><path d="M1061.71 651.298 836.419 1492.11 1677.23 1717.4 1902.53 876.593ZM1038.75 611.518 1942.31 853.626 1700.2 1757.18 796.638 1515.08Z" stroke="#FFFFFF" stroke-width="9.16667" stroke-miterlimit="8" fill-rule="evenodd"/><path d="M1184.09 577.027 795.63 1249.87 1468.47 1638.33 1856.93 965.492ZM1172.21 532.658 1901.3 953.603 1480.36 1682.7 751.261 1261.76Z" stroke="#FFFFFF" stroke-width="9.16667" stroke-miterlimit="8" fill-rule="evenodd"/><path d="M1321.7 544.479 832.041 1034.14 1321.7 1523.79 1811.36 1034.14ZM1321.7 498.545 1857.29 1034.14 1321.7 1569.73 786.107 1034.14Z" stroke="#FFFFFF" stroke-width="9.16667" stroke-miterlimit="8" fill-rule="evenodd"/><path d="M1439.22 542.914 904.777 851.477 1213.34 1385.92 1747.79 1077.36ZM1451.11 498.545 1792.16 1089.25 1201.45 1430.29 860.408 839.588Z" stroke="#FFFFFF" stroke-width="9.16667" stroke-miterlimit="8" fill-rule="evenodd"/><path d="M1540.65 572.438 1009.81 714.676 1152.04 1245.52 1682.89 1103.28ZM1563.61 532.658 1722.67 1126.25 1129.08 1285.3 970.026 691.709Z" stroke="#FFFFFF" stroke-width="9.16667" stroke-miterlimit="8" fill-rule="evenodd"/><path d="M1617.99 617.011 1129.01 617.011 1129.01 1105.99 1617.99 1105.99ZM1650.5 584.5 1650.5 1138.5 1096.5 1138.5 1096.5 584.5Z" stroke="#FFFFFF" stroke-width="9.16667" stroke-miterlimit="8" fill-rule="evenodd"/></g></svg>